<svg width="96" height="36" viewBox="0 0 96 36" fill="#ff4d55"><path fill="#ff4d55" fill-rule="evenodd" d="M16.205.014c2.83.266 4.29 1.594 4.379 3.984.113 3.06-5.572 7.86-7.242 9.202-.428.344-.57.955-.29 1.429.152.259.423.476.897.523.829.083 1.97-.249 2.708-.51a5.474 5.474 0 012.502-.29c1.25.157 2.66.749 2.354 2.66-.38 2.37-3.697 5.113-5.52 6.542-1.646 1.292-2.177 2.088-3.273 3.666-.899 1.293-1.319 2.918-.497 3.867 1.726 1.992 1.46 3.054 1.46 3.054S13.55 36 11.693 36c-1.858 0-3.185-2.921-3.185-2.921s-2.39-4.914 1.725-8.1c4.953-3.838 5.44-5.578 5.44-5.578.027-.047 1.285-2.383-2.919-1.726-1.692.265-3.033.506-3.966.497-1.18-.01-2.3-.6-2.91-1.611a3.144 3.144 0 01-.423-1.143c-.14-.911.533-1.97 1.2-2.768.478-.57 1.056-1.083 1.611-1.536 1.75-1.429 8.45-6.77 3.825-7.116-3.718-.28-7.516 4.95-8.791 7.398-.244.468-.555 1.235-.932 2.3-.724 1.978-1.067 3.968-1.027 5.97.06 3.005 1.328 9.03 1.328 9.03C1.3 26.29.587 23.734.235 21.437-.654 15.645.993 9.715 4.932 5.38 8.357 1.61 12.114-.179 16.205.014zm33.5 12.79c.193 0 .378.052.555.155a1.128 1.128 0 01.556.97c-.025.118-.065.287-.121.506a7.41 7.41 0 01-.206.665l-3.325 8.733c-.287.768-.567 1.371-.84 1.808a2.77 2.77 0 01-1.09 1.008c-.45.234-1.06.351-1.825.351-.748 0-1.308-.081-1.682-.244-.373-.162-.56-.459-.56-.89 0-.293.088-.52.266-.68.177-.158.44-.238.79-.238.136 0 .27.019.401.056.162.038.302.056.42.056.293 0 .523-.043.692-.13.168-.088.319-.24.453-.455.134-.216.288-.533.462-.951l.234-.572-3.14-7.927c-.192-.456-.289-.787-.289-.993 0-.219.056-.422.168-.61.113-.187.267-.337.463-.45.196-.112.4-.168.612-.168.367 0 .644.117.831.352.187.234.352.57.495 1.007l2.158 6.297 2.046-5.857c.162-.474.308-.846.439-1.115.13-.268.27-.45.415-.543.147-.094.354-.14.622-.14zm11.321-3.57c.442 0 .77.099.986.295.215.197.322.455.322.773 0 .325-.107.586-.322.783-.215.197-.544.295-.986.295h-5.464v3.514h4.568c.423 0 .739.095.948.286.208.19.313.445.313.763 0 .319-.106.572-.318.76-.212.187-.526.28-.943.28h-4.568v4.526c0 .575-.13 1.001-.388 1.28-.258.277-.59.416-.995.416-.41 0-.746-.14-1.004-.422-.258-.28-.388-.705-.388-1.274V10.94c0-.4.06-.726.178-.979s.303-.437.556-.552c.252-.116.574-.174.966-.174h6.54zM31.723 9c.392 0 .694.127.906.38.212.252.317.613.317 1.082v3.907c.48-.5.969-.882 1.467-1.148.498-.265 1.115-.398 1.85-.398.847 0 1.59.201 2.227.604.639.403 1.134.987 1.486 1.753.352.765.528 1.672.528 2.722 0 .774-.099 1.485-.295 2.131a5.067 5.067 0 01-.854 1.682 3.864 3.864 0 01-1.36 1.101c-.532.26-1.119.39-1.76.39-.393 0-.762-.048-1.107-.141a3.24 3.24 0 01-.883-.37 3.996 3.996 0 01-.621-.474 10.642 10.642 0 01-.678-.73v.252c0 .481-.115.845-.345 1.092a1.15 1.15 0 01-.878.37c-.361 0-.65-.123-.864-.37-.215-.247-.323-.61-.323-1.092V10.574c0-.518.105-.91.313-1.176.209-.265.5-.398.874-.398zm36.225 3.804c.772 0 1.473.125 2.102.375a4.57 4.57 0 011.616 1.068 4.62 4.62 0 011.023 1.65c.233.637.35 1.34.35 2.108 0 .762-.118 1.465-.355 2.108a4.658 4.658 0 01-1.027 1.658 4.536 4.536 0 01-1.607 1.064c-.623.247-1.323.37-2.102.37-.772 0-1.466-.125-2.083-.375a4.625 4.625 0 01-1.602-1.073 4.64 4.64 0 01-1.027-1.649 6.046 6.046 0 01-.35-2.103c0-.775.118-1.484.354-2.127a4.63 4.63 0 011.018-1.65 4.487 4.487 0 011.607-1.054 5.658 5.658 0 012.083-.37zm11.555 0c.773 0 1.473.125 2.102.375a4.57 4.57 0 011.616 1.068 4.62 4.62 0 011.023 1.65c.234.637.35 1.34.35 2.108 0 .762-.118 1.465-.355 2.108a4.658 4.658 0 01-1.027 1.658 4.536 4.536 0 01-1.607 1.064c-.623.247-1.323.37-2.102.37-.772 0-1.466-.125-2.083-.375a4.625 4.625 0 01-1.602-1.073 4.641 4.641 0 01-1.027-1.649 6.046 6.046 0 01-.35-2.103c0-.775.118-1.484.354-2.127a4.63 4.63 0 011.019-1.65 4.487 4.487 0 011.606-1.054 5.658 5.658 0 012.083-.37zM94.795 9c.386 0 .683.123.892.37.209.247.313.61.313 1.092v11.281c0 .488-.112.853-.336 1.097a1.127 1.127 0 01-.869.365c-.349 0-.637-.126-.864-.38-.227-.252-.341-.613-.341-1.082v-.253c-.343.394-.68.714-1.014.96a3.811 3.811 0 01-2.358.755c-.61 0-1.176-.13-1.696-.389a3.96 3.96 0 01-1.35-1.11 5.069 5.069 0 01-.864-1.696 7.263 7.263 0 01-.294-2.108c0-1.6.39-2.846 1.168-3.74.778-.892 1.803-1.339 3.073-1.339.735 0 1.355.127 1.859.38.504.252.996.641 1.476 1.166v-3.776c0-.525.104-.921.313-1.19.209-.269.506-.403.892-.403zm-26.847 5.697c-.498 0-.937.13-1.317.389-.38.26-.673.642-.878 1.148-.206.506-.308 1.096-.308 1.77 0 .67.1 1.253.303 1.753.203.5.492.882.869 1.148.377.265.82.398 1.331.398.772 0 1.387-.292 1.845-.876.458-.584.687-1.392.687-2.422 0-1.044-.23-1.856-.687-2.437-.458-.58-1.073-.871-1.845-.871zm11.555 0c-.498 0-.937.13-1.317.389-.38.26-.672.642-.878 1.148-.205.506-.308 1.096-.308 1.77 0 .67.101 1.253.303 1.753.203.5.492.882.87 1.148.376.265.82.398 1.33.398.773 0 1.387-.292 1.845-.876.458-.584.687-1.392.687-2.422 0-1.044-.23-1.856-.687-2.437-.458-.58-1.072-.871-1.845-.871zm-43.913.019a2.21 2.21 0 00-1.298.398c-.38.265-.68.65-.897 1.153-.218.502-.327 1.1-.327 1.794 0 1.018.232 1.8.696 2.347.464.547 1.072.82 1.826.82.641 0 1.194-.28 1.658-.839.464-.559.696-1.36.696-2.403 0-.675-.097-1.256-.29-1.743-.193-.487-.467-.864-.822-1.129a2.017 2.017 0 00-1.242-.398zm55.394 0c-.467 0-.885.133-1.252.398s-.652.647-.855 1.143c-.202.497-.303 1.073-.303 1.729 0 .693.107 1.284.322 1.77.215.488.51.855.883 1.102.373.247.781.37 1.223.37.449 0 .858-.117 1.229-.351.37-.235.666-.594.887-1.078.221-.484.332-1.088.332-1.813 0-.68-.11-1.267-.332-1.757-.22-.49-.52-.865-.897-1.124a2.138 2.138 0 00-1.237-.39z"></path></svg>